<svg width="18" height="14" viewBox="0 0 18 14" fill="none" xmlns="http://www.w3.org/2000/svg">
<path id="Vector" d="M12.5458 9.16753C15.4789 6.95787 16.713 6.01114 17.5 5.38936M12.5458 9.16753C12.5458 9.16755 12.5458 9.16756 12.5458 9.16758L12.2449 8.76823M12.5458 9.16753C12.5461 9.16738 12.5463 9.16722 12.5465 9.16706L12.2449 8.76823M12.5458 9.16753C12.4557 9.23568 12.3459 9.32371 12.2214 9.42352C11.9123 9.67132 11.5126 9.99182 11.0982 10.2615C10.5106 10.6439 9.77618 11.0093 8.99929 11.0037M17.5 5.38936L12.2449 8.76823M17.5 5.38936V12.25C17.5 12.9573 16.951 13.5 16.3125 13.5H1.6875C1.04899 13.5 0.5 12.9573 0.5 12.25V5.39244M17.5 5.38936L0.5 5.39244M12.2449 8.76823C12.1361 8.85048 12.0143 8.94823 11.8814 9.05481C11.1427 9.64742 10.0638 10.5129 9 10.5036M8.99929 11.0037C9.0005 11.0036 9.00171 11.0036 9.00292 11.0036L9 10.5036M8.99929 11.0037C8.22772 11.007 7.5023 10.6484 6.91721 10.2686C6.50426 10.0005 6.10542 9.68155 5.79097 9.43008C5.66459 9.329 5.55184 9.23882 5.45728 9.16724M8.99929 11.0037C8.99807 11.0036 8.99686 11.0036 8.99564 11.0036L9 10.5036M9 10.5036L5.45728 9.16724M5.45728 9.16724C5.45743 9.16736 5.45758 9.16747 5.45773 9.16758L5.75859 8.76823L5.45684 9.16691C5.45699 9.16702 5.45714 9.16713 5.45728 9.16724ZM5.45728 9.16724C2.52472 6.95792 1.28812 6.01354 0.5 5.39244M5.45728 9.16724L0.203297 4.79792L0.0277886 5.01629C0.119413 5.08993 0.246347 5.09671 0.343182 5.04781C0.437676 5.00008 0.5 4.90231 0.5 4.79792V5.39244M9.00894 8.83341L9 8.83325L8.99106 8.83341C8.89217 8.83518 8.74381 8.80218 8.54219 8.71079C8.34568 8.62172 8.13115 8.49228 7.90919 8.33926C7.61167 8.13414 7.34923 7.92339 7.10937 7.73078C6.97317 7.62141 6.84425 7.51788 6.72032 7.42455L6.72019 7.42445C2.40232 4.17493 1.783 3.67229 0.865544 2.92767C0.792862 2.86868 0.71831 2.80817 0.6399 2.74466C0.552795 2.67244 0.5 2.56329 0.5 2.44271V1.75C0.5 1.0427 1.04899 0.5 1.6875 0.5H16.3125C16.951 0.5 17.5 1.0427 17.5 1.75V2.44271C17.5 2.56706 17.4445 2.67673 17.3631 2.74221L17.3611 2.74388C17.3001 2.79346 17.2415 2.84121 17.1843 2.8878C16.2384 3.65804 15.6769 4.11531 11.2798 7.42445L11.2797 7.42455C11.1558 7.51788 11.0268 7.6214 10.8906 7.73078C10.6508 7.92339 10.3883 8.13414 10.0908 8.33926C9.86885 8.49228 9.65432 8.62172 9.45781 8.71079C9.25619 8.80218 9.10783 8.83518 9.00894 8.83341Z" stroke="#FD7E7E"/>
</svg>
