<svg width="15" height="18" viewBox="0 0 15 18" fill="none" xmlns="http://www.w3.org/2000/svg">
<path id="Vector" d="M13.594 18C6.09093 18 0 10.7049 0 1.68721C-3.56904e-05 1.4964 0.0538267 1.3112 0.152796 1.16186C0.251766 1.01251 0.389998 0.907825 0.544931 0.864892L3.59186 0.0211269M13.594 18L14.4624 13.3108C14.4979 13.3947 14.5098 13.4972 14.4914 13.5967C14.4914 13.5971 14.4913 13.5974 14.4912 13.5977L13.7886 17.2516C13.7703 17.3462 13.7286 17.4152 13.6869 17.455C13.6471 17.4929 13.6137 17.5 13.5944 17.5H13.594C6.4483 17.5 0.5 10.5177 0.5 1.68721V1.68712C0.499981 1.58787 0.528495 1.50006 0.569587 1.43805C0.610115 1.3769 0.653033 1.3538 0.678371 1.34676M13.594 18C13.753 18.0001 13.9074 17.9355 14.032 17.8168M13.594 18L14.032 17.8168M3.59186 0.0211269L3.72343 0.503506C3.72361 0.503455 3.7238 0.503406 3.72398 0.503356M3.59186 0.0211269L3.7253 0.502992L3.72398 0.503356M3.59186 0.0211269C3.75256 -0.0227045 3.92097 0.00212529 4.06804 0.0913347M3.72398 0.503356L0.678452 1.34673M3.72398 0.503356C3.74746 0.497087 3.77486 0.498291 3.80874 0.518842L4.06804 0.0913347M0.678452 1.34673L0.544935 0.864906L0.678371 1.34676M0.678452 1.34673L0.678371 1.34676M0.678452 1.34673L0.678371 1.34676M4.06804 0.0913347C4.21512 0.180544 4.33165 0.328542 4.39754 0.509807M4.06804 0.0913347L3.80874 0.518842C3.84646 0.54172 3.89525 0.592253 3.92722 0.679536M4.39754 0.509807L14.9229 13.116L14.4624 13.3108C14.4271 13.2273 14.3778 13.1823 14.3417 13.1632C14.3414 13.163 14.3412 13.1628 14.3409 13.1627L11.0633 11.4771C11.0632 11.477 11.0631 11.477 11.063 11.4769C11.0345 11.4624 11.0109 11.4618 10.9888 11.4683L10.847 10.9889L10.9888 11.4683C10.9639 11.4757 10.923 11.4983 10.884 11.5558L10.8837 11.5562L9.43051 13.6867L9.17142 14.0666L8.77122 13.8402C6.37861 12.4865 4.47266 10.188 3.36087 7.3584L3.23993 7.05058L3.47588 6.81883L5.2513 5.07505L5.25243 5.07395C5.29227 5.03506 5.33191 4.96931 5.35033 4.87962C5.3687 4.79015 5.3617 4.69613 5.33294 4.61555L5.80381 4.44738M4.39754 0.509807L5.80381 4.44738M4.39754 0.509807L3.82624 7.17555L5.60166 5.43177C5.71993 5.31634 5.80363 5.15782 5.84011 4.9802C5.87659 4.80258 5.86384 4.61553 5.80381 4.44738M4.39754 0.509807L3.92762 0.680612C3.92749 0.680253 3.92735 0.679894 3.92722 0.679536M4.39754 0.509807L3.92667 0.677976L3.92722 0.679536M3.92722 0.679536L5.33292 4.61549L5.80381 4.44738M14.032 17.8168C14.1565 17.698 14.2438 17.5321 14.2795 17.3461L14.032 17.8168Z" stroke="#FD7E7E"/>
</svg>
