<svg width="15" height="18" viewBox="0 0 15 18" fill="none" xmlns="http://www.w3.org/2000/svg">
<path id="Vector" d="M7.12564 17.3321C6.09975 15.9936 5.22862 14.8768 4.48889 13.9284M7.12564 17.3321C7.12578 17.3323 7.12592 17.3325 7.12607 17.3327L6.72922 17.6368L7.12555 17.332C7.12558 17.332 7.12561 17.3321 7.12564 17.3321ZM7.12564 17.3321L4.48889 13.9284M4.48889 13.9284C3.16921 12.2365 2.26776 11.0808 1.65195 10.1592C1.17823 9.45031 0.895931 8.91119 0.728244 8.40157C0.562225 7.89703 0.5 7.39537 0.5 6.75C0.5 3.34646 3.58314 0.5 7.5 0.5C11.4169 0.5 14.5 3.34646 14.5 6.75C14.5 7.39537 14.4378 7.89703 14.2718 8.40157C14.1041 8.91119 13.8218 9.45031 13.3481 10.1592C12.7322 11.0808 11.8308 12.2365 10.5111 13.9284C9.77137 14.8768 8.90021 15.9937 7.87428 17.3322L4.48889 13.9284ZM7.5 10.0625C9.45119 10.0625 11.125 8.6277 11.125 6.75C11.125 4.8723 9.45119 3.4375 7.5 3.4375C5.54882 3.4375 3.875 4.8723 3.875 6.75C3.875 8.6277 5.54882 10.0625 7.5 10.0625Z" stroke="#FD7E7E"/>
</svg>
